<svg
  version="1.1"
  xmlns="http://www.w3.org/2000/svg"
  xmlns:xlink="http://www.w3.org/1999/xlink"
  x="0px"
  y="0px"
  width="118.8px"
  height="106.5px"
  viewBox="0 0 118.8 106.5"
  style="enable-background: new 0 0 118.8 106.5"
  xml:space="preserve"
>
  <style type="text/css">
    .st0 {
      fill: #2c1a2c;
    }
  </style>
  <path
    class="st0"
    d="M38.3,85.9c-2.4,2.2-4,5.3-4,8.8c0,6.6,5.3,11.9,11.9,11.9s11.9-5.3,11.9-11.9c0-1.5-0.3-2.8-0.8-4.1h34.6
	c-0.5,1.3-0.8,2.7-0.8,4.1c0,6.6,5.3,11.9,11.9,11.9s11.9-5.3,11.9-11.9s-5.3-11.9-11.9-11.9c-2.6,0-4.8,1-6.7,2.4H52.9
	c-1.9-1.4-4.2-2.4-6.7-2.4c-1.1,0-2,0.3-3,0.6l-3.7-12h58.5c5.6,0,8.1-2.7,9.4-5.4c6.5-24.2,10.2-38.2,11.1-42
	c0.7-2.9,0.3-5.1-1-6.7c-1.3-1.5-3.1-2.2-5.8-2H22.1L18,1.9L17.4,0H2.7C1.2,0,0,1.2,0,2.7s1.2,2.7,2.7,2.7h10.7L38.3,85.9z
	M95.9,94.6c0-3.9,3.1-7,7-7s7,3.1,7,7s-3.1,7-7,7S95.9,98.5,95.9,94.6z M53.2,94.6c0,3.9-3.2,7-7,7s-7-3.1-7-7s3.2-7,7-7
	S53.2,90.7,53.2,94.6z M111.9,20.6c0.2,0,0.4,0,0.6,0c1.2,0,0.9,0.1,0.9,0.1c0,0.1,0.2,0.6-0.1,1.9c-1,3.8-4.6,17.8-10.9,41.4
	c-0.3,0.5-0.9,1.9-4.4,1.9H37.8l-14-45.3H111.9z"
  />
</svg>
